<?xml version="1.0" encoding="UTF-8"?>
<!DOCTYPE svg PUBLIC "-//W3C//DTD SVG 1.1//EN" "http://www.w3.org/Graphics/SVG/1.1/DTD/svg11.dtd">
<svg xmlns="http://www.w3.org/2000/svg" version="1.1" width="512px" height="512px" style="shape-rendering:geometricPrecision; text-rendering:geometricPrecision; image-rendering:optimizeQuality; fill-rule:evenodd; clip-rule:evenodd" xmlns:xlink="http://www.w3.org/1999/xlink">
<g><path style="opacity:1" fill="#002570" d="M 30.5,-0.5 C 111.167,-0.5 191.833,-0.5 272.5,-0.5C 287.11,3.73477 296.944,13.0681 302,27.5C 303.463,53.4487 303.963,79.4487 303.5,105.5C 303.5,112.5 303.5,119.5 303.5,126.5C 303.667,154.169 303.5,181.835 303,209.5C 298.058,229.054 285.558,239.888 265.5,242C 189.5,242.667 113.5,242.667 37.5,242C 17.6633,239.985 4.99659,229.485 -0.5,210.5C -0.5,150.5 -0.5,90.5 -0.5,30.5C 4.16667,14.5 14.5,4.16667 30.5,-0.5 Z"/></g>
<g><path style="opacity:1" fill="#259cc7" d="M 119.5,19.5 C 114.744,35.1954 111.244,51.1954 109,67.5C 108.5,77.4944 108.334,87.4944 108.5,97.5C 78.8333,97.5 49.1667,97.5 19.5,97.5C 19.3334,76.4974 19.5,55.4974 20,34.5C 22.1667,27 27,22.1667 34.5,20C 62.8314,19.5 91.1647,19.3334 119.5,19.5 Z"/></g>
<g><path style="opacity:1" fill="#63c7cd" d="M 119.5,19.5 C 169.168,19.3333 218.834,19.5 268.5,20C 275.333,22.8333 280.167,27.6667 283,34.5C 283.5,55.4974 283.667,76.4974 283.5,97.5C 225.167,97.5 166.833,97.5 108.5,97.5C 108.334,87.4944 108.5,77.4944 109,67.5C 111.244,51.1954 114.744,35.1954 119.5,19.5 Z"/></g>
<g><path style="opacity:1" fill="#f5f7f8" d="M 50.5,48.5 C 62.1406,49.1124 65.6406,54.779 61,65.5C 55.0118,70.0015 49.6785,69.3348 45,63.5C 42.3277,56.845 44.1611,51.845 50.5,48.5 Z"/></g>
<g><path style="opacity:1" fill="#cdd9f9" d="M 19.5,97.5 C 49.1667,97.5 78.8333,97.5 108.5,97.5C 109.963,143.224 123.963,184.558 150.5,221.5C 111.499,221.667 72.4986,221.5 33.5,221C 26.5724,218.406 22.0724,213.573 20,206.5C 19.5,170.168 19.3333,133.835 19.5,97.5 Z"/></g>
<g><path style="opacity:1" fill="#f9f9f9" d="M 108.5,97.5 C 166.833,97.5 225.167,97.5 283.5,97.5C 283.667,133.502 283.5,169.502 283,205.5C 280.768,213.152 275.935,218.319 268.5,221C 229.168,221.5 189.835,221.667 150.5,221.5C 123.963,184.558 109.963,143.224 108.5,97.5 Z"/></g>
<g><path style="opacity:1" fill="#aed350" d="M 303.5,105.5 C 340.919,105.013 378.253,105.513 415.5,107C 417.317,108.8 418.484,110.966 419,113.5C 419.5,135.164 419.667,156.831 419.5,178.5C 412.5,178.5 405.5,178.5 398.5,178.5C 398.5,161.167 398.5,143.833 398.5,126.5C 366.833,126.5 335.167,126.5 303.5,126.5C 303.5,119.5 303.5,112.5 303.5,105.5 Z"/></g>
<g><path style="opacity:1" fill="#012570" d="M 398.5,178.5 C 405.5,178.5 412.5,178.5 419.5,178.5C 441.322,183.482 456.656,196.316 465.5,217C 489.782,223.781 505.115,239.281 511.5,263.5C 511.5,270.833 511.5,278.167 511.5,285.5C 505.116,312.048 488.45,327.881 461.5,333C 447.504,333.5 433.504,333.667 419.5,333.5C 412.5,333.5 405.5,333.5 398.5,333.5C 384.163,333.667 369.829,333.5 355.5,333C 324.294,325.959 307.628,306.459 305.5,274.5C 307.34,243.967 323.007,224.8 352.5,217C 360.712,195.618 376.046,182.785 398.5,178.5 Z"/></g>
<g><path style="opacity:1" fill="#cdd9f9" d="M 458.5,312.5 C 444.484,312.833 430.484,312.499 416.5,311.5C 399.661,283.506 392.828,253.173 396,220.5C 397.183,213.061 398.683,205.728 400.5,198.5C 418.018,196.06 431.851,202.06 442,216.5C 444.318,222.467 446.818,228.3 449.5,234C 457.688,235.84 465.688,238.507 473.5,242C 493.029,256.749 496.862,274.916 485,296.5C 478.315,305.344 469.481,310.678 458.5,312.5 Z"/></g>
<g><path style="opacity:1" fill="#8eadf1" d="M 400.5,198.5 C 398.683,205.728 397.183,213.061 396,220.5C 392.828,253.173 399.661,283.506 416.5,311.5C 430.484,312.499 444.484,312.833 458.5,312.5C 425.669,313.664 392.669,313.831 359.5,313C 334.414,306.554 323.581,290.387 327,264.5C 333.858,246.319 347.024,236.486 366.5,235C 369.805,231.105 371.972,226.605 373,221.5C 378.524,209.487 387.691,201.82 400.5,198.5 Z"/></g>
<g><path style="opacity:1" fill="#002570" d="M 260.5,402.5 C 260.5,409.5 260.5,416.5 260.5,423.5C 260.667,451.169 260.5,478.835 260,506.5C 258.634,508.362 257.134,510.028 255.5,511.5C 171.833,511.5 88.1667,511.5 4.5,511.5C 2.83333,509.833 1.16667,508.167 -0.5,506.5C -0.5,444.5 -0.5,382.5 -0.5,320.5C 0.977392,318.193 2.97739,316.36 5.5,315C 88.5,314.333 171.5,314.333 254.5,315C 257,316.167 258.833,318 260,320.5C 260.5,347.831 260.667,375.165 260.5,402.5 Z"/></g>
<g><path style="opacity:1" fill="#aed450" d="M 398.5,333.5 C 405.5,333.5 412.5,333.5 419.5,333.5C 419.667,360.835 419.5,388.169 419,415.5C 418.31,418.196 416.81,420.363 414.5,422C 363.251,423.491 311.917,423.991 260.5,423.5C 260.5,416.5 260.5,409.5 260.5,402.5C 306.5,402.5 352.5,402.5 398.5,402.5C 398.5,379.5 398.5,356.5 398.5,333.5 Z"/></g>
<g><path style="opacity:1" fill="#6363f1" d="M 108.5,334.5 C 101.036,356.932 98.3695,379.932 100.5,403.5C 73.5,403.5 46.5,403.5 19.5,403.5C 19.5,380.5 19.5,357.5 19.5,334.5C 49.1667,334.5 78.8333,334.5 108.5,334.5 Z"/></g>
<g><path style="opacity:1" fill="#b894f1" d="M 108.5,334.5 C 152.5,334.5 196.5,334.5 240.5,334.5C 240.5,357.5 240.5,380.5 240.5,403.5C 193.833,403.5 147.167,403.5 100.5,403.5C 98.3695,379.932 101.036,356.932 108.5,334.5 Z"/></g>
<g><path style="opacity:1" fill="#f7c54f" d="M 49.5,359.5 C 59.4398,358.274 63.9398,362.607 63,372.5C 60.0812,378.025 55.5812,379.858 49.5,378C 41.663,371.715 41.663,365.548 49.5,359.5 Z"/></g>
<g><path style="opacity:1" fill="#f7f5f9" d="M 115.5,358.5 C 146.502,358.333 177.502,358.5 208.5,359C 216.701,362.373 218.535,367.873 214,375.5C 212.421,377.041 210.587,378.208 208.5,379C 177.5,379.667 146.5,379.667 115.5,379C 110.45,377.566 108.117,374.233 108.5,369C 108.292,363.723 110.625,360.223 115.5,358.5 Z"/></g>
<g><path style="opacity:1" fill="#6464f2" d="M 103.5,423.5 C 104.948,432.741 107.281,441.741 110.5,450.5C 106.1,459.054 108.433,464.72 117.5,467.5C 121.768,475.759 126.434,483.759 131.5,491.5C 94.1667,491.5 56.8333,491.5 19.5,491.5C 19.5,468.833 19.5,446.167 19.5,423.5C 47.5,423.5 75.5,423.5 103.5,423.5 Z"/></g>
<g><path style="opacity:1" fill="#bb96f2" d="M 103.5,423.5 C 149.167,423.5 194.833,423.5 240.5,423.5C 240.5,446.167 240.5,468.833 240.5,491.5C 204.167,491.5 167.833,491.5 131.5,491.5C 126.434,483.759 121.768,475.759 117.5,467.5C 147.835,467.667 178.168,467.5 208.5,467C 216.318,463.547 218.151,458.047 214,450.5C 212.581,449.54 211.081,448.707 209.5,448C 177.5,447.333 145.5,447.333 113.5,448C 112.627,449.045 111.627,449.878 110.5,450.5C 107.281,441.741 104.948,432.741 103.5,423.5 Z"/></g>
<g><path style="opacity:1" fill="#f6c550" d="M 49.5,447.5 C 59.5129,446.348 64.0129,450.681 63,460.5C 57.8239,468.919 51.8239,469.586 45,462.5C 42.4734,456.235 43.9734,451.235 49.5,447.5 Z"/></g>
<g><path style="opacity:1" fill="#f9f8fa" d="M 117.5,467.5 C 108.433,464.72 106.1,459.054 110.5,450.5C 111.627,449.878 112.627,449.045 113.5,448C 145.5,447.333 177.5,447.333 209.5,448C 211.081,448.707 212.581,449.54 214,450.5C 218.151,458.047 216.318,463.547 208.5,467C 178.168,467.5 147.835,467.667 117.5,467.5 Z"/></g>
</svg>
