<?xml version="1.0" encoding="UTF-8"?>
<!DOCTYPE svg PUBLIC '-//W3C//DTD SVG 1.1//EN' 'http://www.w3.org/Graphics/SVG/1.1/DTD/svg11.dtd'>
<svg width="295" height="365" xmlns="http://www.w3.org/2000/svg">
 <filter id="a">
  <feGaussianBlur stdDeviation=".83"/>
 </filter>
 <filter id="b" x="-.03" y="-.15" width="1.06" height="1.3">
  <feGaussianBlur stdDeviation=".82"/>
 </filter>
 <filter id="c">
  <feGaussianBlur stdDeviation=".38"/>
 </filter>
 <path d="m0 0v365h217l-142-365z" fill="#d2d7f3"/>
 <path d="m75 0 142 365h78v-365z" fill="#faf7be"/>
 <g stroke="#000">
  <path d="m188 19h47v61h-47z" fill="#b7b7b7" stroke-miterlimit="2"/>
  <path d="m193 23h37v14h-37zm0 16.96h37v14.04h-37zm0 17.04h37v14h-37z" fill="none" stroke-dasharray="1,2" stroke-miterlimit="2"/>
  <path d="m206 67h11v13h-11z" fill="#cdcdcd" stroke-miterlimit="1"/>
  <path d="m219 68h-15c0-2.76 3.36-5 7.5-5s7.5 2.24 7.5 5z" fill="#cdcdcd" stroke-miterlimit="2"/>
  <path d="m8.963 63h49.074v17h-49.074zm-1.963 0h53" fill="#b7b7b7"/>
  <path d="m29 67h11v13h-11z" fill="#cdcdcd" stroke-miterlimit="2"/>
 </g>
 <g fill="none">
  <path d="m204 30h-11c-3 0-5 2-5 5v37c0 4.5-3 8-8 8h-113c-5 0-8-2-9-4s-4-4-9-4h-6m161-25h-11c-3 0-5 2-5 5m16 12h-11c-3 0-5 2-5 5" stroke="#000" stroke-width="7"/>
  <path d="m204 30h-11c-3 0-5 2-5 5v37c0 4.5-3 8-8 8h-77m101-33h-11c-3 0-5 2-5 5m16 12h-11c-3 0-5 2-5 5" stroke="#e55918" stroke-opacity=".98" stroke-width="5"/>
  <path transform="translate(-2.5 -13.5)" d="m206.5 43.5h-11c-3 0-5 2-5 5v37c0 4.5-3 8-8 8h-77m101-33h-11c-3 0-5 2-5 5m16 12h-11c-3 0-5 2-5 5" filter="url(#a)" stroke="#f4cc09" stroke-width="2"/>
 </g>
 <g stroke="#000">
  <path d="m188 109h47v61h-47z" fill="#b7b7b7" stroke-miterlimit="2"/>
  <path d="m193 113h37v14h-37zm0 16.96h37v14.04h-37zm0 17.04h37v14h-37z" fill="none" stroke-dasharray="1,2" stroke-miterlimit="2"/>
  <path d="m206 157h11v13h-11z" fill="#cdcdcd" stroke-miterlimit="1"/>
  <path d="m219 158h-15c0-2.76 3.36-5 7.5-5s7.5 2.24 7.5 5z" fill="#cdcdcd" stroke-miterlimit="2"/>
  <path d="m8.963 153h49.074v17h-49.074zm-1.963 0h53" fill="#b7b7b7"/>
  <path d="m29 157h11v13h-11z" fill="#cdcdcd" stroke-miterlimit="2"/>
 </g>
 <g fill="none">
  <path d="m204 120h-11c-3 0-5 2-5 5v37c0 4.5-3 8-8 8h-113c-5 0-8-2-9-4s-4-4-9-4h-6m161-25h-11c-3 0-5 2-5 5m16 12h-11c-3 0-5 2-5 5" stroke="#000" stroke-width="7"/>
  <path transform="translate(-2.5 -13.5)" d="m145.5 183.5h-76c-5 0-8-2-9-4s-4-4-9-4h-6" filter="url(#b)" stroke="#6010d0" stroke-width="5"/>
  <path transform="translate(-2.5 -13.5)" d="m145.5 183.5h-76c-5 0-8-2-9-4s-4-4-9-4h-6" filter="url(#c)" stroke="#ff0008" stroke-width="2"/>
  <path d="m204 120h-11c-3 0-5 2-5 5v37c0 4.5-3 8-8 8h-37m61-33h-11c-3 0-5 2-5 5m16 12h-11c-3 0-5 2-5 5" stroke="#e55918" stroke-opacity=".98" stroke-width="5"/>
  <path transform="translate(-2.5 -13.5)" d="m206.5 133.5h-11c-3 0-5 2-5 5v37c0 4.5-3 8-8 8h-37m61-33h-11c-3 0-5 2-5 5m16 12h-11c-3 0-5 2-5 5" filter="url(#a)" stroke="#f4cc09" stroke-width="2"/>
 </g>
 <g stroke="#000">
  <path d="m188 199h47v61h-47z" fill="#b7b7b7" stroke-miterlimit="2"/>
  <path d="m193 203h37v14h-37zm0 16.96h37v14.04h-37zm0 17.04h37v14h-37z" fill="none" stroke-dasharray="1,2" stroke-miterlimit="2"/>
  <path d="m206 247h11v13h-11z" fill="#cdcdcd" stroke-miterlimit="1"/>
  <path d="m219 248h-15c0-2.76 3.36-5 7.5-5s7.5 2.24 7.5 5z" fill="#cdcdcd" stroke-miterlimit="2"/>
  <path d="m8.963 243h49.074v17h-49.074zm-1.963 0h53" fill="#b7b7b7"/>
  <path d="m29 247h11v13h-11z" fill="#cdcdcd" stroke-miterlimit="2"/>
 </g>
 <g fill="none">
  <path d="m204 210h-11c-3 0-5 2-5 5v37c0 5-3 8-8 8h-113c-5 0-8-2-9-4s-4-4-9-4h-6m161-25h-11c-3 0-5 2-5 5m16 12h-11c-3 0-5 2-5 5" stroke="#000" stroke-width="7"/>
  <path transform="translate(-2.5 -13.5)" d="m190.5 265.5c0 5-3 8-8 8h-113c-5 0-8-2-9-4s-4-4-9-4h-6" filter="url(#b)" stroke="#6010d0" stroke-width="5"/>
  <g stroke="#e55918" stroke-opacity=".98" stroke-width="5">
   <path d="m204 210h-11c-3 0-5 2-5 5v37"/>
   <path d="m204 227h-11c-3 0-5 2-5 5m16 12h-11c-3 0-5 2-5 5"/>
  </g>
  <g stroke-width="2">
   <path transform="translate(-2.5 -13.5)" d="m45.5 265.5h6c5 0 8 2 9 4s4 4 9 4h113c5 0 8.1-3.04 8-8" filter="url(#c)" stroke="#ff0008"/>
   <g stroke="#f4cc09">
    <path transform="translate(-2.5 -13.5)" d="m206.5 223.5h-11c-3 0-5 2-5 5v37" filter="url(#a)"/>
    <path transform="translate(-2.5 -13.5)" d="m206.5 240.5h-11c-3 0-5 2-5 5m16 12h-11c-3 0-5 2-5 5" filter="url(#a)"/>
   </g>
  </g>
 </g>
 <g stroke="#000">
  <path d="m188 289h47v61h-47z" fill="#b7b7b7" stroke-miterlimit="2"/>
  <path d="m193 293h37v14h-37zm0 16.96h37v14.04h-37zm0 17.04h37v14h-37z" fill="none" stroke-dasharray="1,2" stroke-miterlimit="2"/>
  <path d="m206 337h11v13h-11z" fill="#cdcdcd" stroke-miterlimit="1"/>
  <path d="m219 338h-15c0-2.76 3.36-5 7.5-5s7.5 2.24 7.5 5z" fill="#cdcdcd" stroke-miterlimit="2"/>
  <path d="m8.963 333h49.074v17h-49.074zm-1.963 0h53" fill="#b7b7b7"/>
  <path d="m29 337h11v13h-11z" fill="#cdcdcd" stroke-miterlimit="2"/>
 </g>
 <g fill="none">
  <path d="m204 300h-11c-3 0-5 2-5 5v37c0 4.5-3 8-8 8h-113c-5 0-8-2-9-4s-4-4-9-4h-6m161-25h-11c-3 0-5 2-5 5m16 12h-11c-3 0-5 2-5 5" stroke="#000" stroke-width="7"/>
  <path transform="translate(-2.5 -13.5)" d="m45.5 355.5h6c5 0 8 2 9 4s4 4 9 4h113c5 0 8-3.5 8-8v-37c0-3 2-5 5-5m0 17c-3 0-5 2-5 5m5 12c-3 0-5 2-5 5" filter="url(#b)" stroke="#6010d0" stroke-width="5"/>
  <path d="m204 300h-11m11 17h-11m11 17h-11" stroke="#e55918" stroke-opacity=".98" stroke-width="5"/>
  <path transform="translate(-2.5 -13.5)" d="m195.5 313.5c-3 0-5 2-5 5v37c0 4.5-3 8-8 8h-113c-5 0-8-2-9-4s-4-4-9-4h-6m150-25c-3 0-5 2-5 5m5 12c-3 0-5 2-5 5" filter="url(#c)" stroke="#ff0008" stroke-width="2"/>
  <path transform="translate(-2.5 -13.5)" d="m206.5 313.5h-11m11 17h-11m11 17h-11" filter="url(#a)" stroke="#f4cc09" stroke-width="2"/>
  <path transform="translate(-2.5 -13.5)" d="m105.5 93.5h-36c-5 0-8-2-9-4s-4-4-9-4h-6" filter="url(#b)" stroke="#6010d0" stroke-width="5"/>
  <path transform="translate(-2.5 -13.5)" d="m105.5 93.5h-36c-5 0-8-2-9-4s-4-4-9-4h-6" filter="url(#c)" stroke="#ff0008" stroke-width="2"/>
  <path d="m103 87h85m-85-2v4m85-4v4m-45 86v4m45-4v4m-45-2h45" stroke="#000"/>
 </g>
 <g font-family="Liberation Sans, sans-serif">
  <text transform="translate(-2.5 -13.5)" x="135.5" y="199.5" font-size="9"><tspan x="135.5" y="199.5">&lt;300 m (1000 ft)</tspan></text>
  <text transform="translate(-2.5 -13.5)" x="115.5" y="109.5" font-size="9"><tspan x="115.5" y="109.5">&gt;300 m (1000 ft)</tspan></text>
  <g transform="translate(-2.5 9.5)" font-size="19">
   <text x="242.5" y="73.5"><tspan x="242.5" y="73.5">FTTN</tspan></text>
   <text x="242.5" y="163.5"><tspan x="242.5" y="163.5">FTTC</tspan></text>
   <text x="242.5" y="253.5"><tspan x="242.5" y="253.5">FTTB</tspan></text>
   <text x="242.5" y="343.5"><tspan x="242.5" y="343.5">FTTH</tspan></text>
  </g>
  <g transform="translate(-2.5 -13.5)" font-size="9">
   <text x="13.5" y="28.5"><tspan x="13.5" y="28.5">Optical fibres</tspan></text>
   <text x="97.5" y="28.5"><tspan x="97.5" y="28.5">Metallic cables</tspan></text>
  </g>
 </g>
</svg>
